<svg xmlns="http://www.w3.org/2000/svg" xml:space="preserve" width="512" height="512" style="fill-rule:evenodd;clip-rule:evenodd;stroke-linecap:round;stroke-linejoin:round;stroke-miterlimit:1.5"><path d="M1169.86 1674.93c-57.08 139.2-248.092 230.5-444.035 227.05-182.173 11.38-398.917-60.52-443.328-228.91 95.415 43.84 302.67 74.63 447.59 72.78 153.858 5.12 350.303-38.71 439.773-70.92Z" style="fill:#8b73ed;stroke:#000;stroke-width:9.08px" transform="matrix(.33022 0 0 .33022 11.396 -122.465)"/><path d="M1333.55 1382.65s49.24 186.44-163.69 292.17c-46.97 21.08-280.739 78.66-444.035 71.31-186.515-4.12-302.782-17.41-443.328-73.06-155.722-97.98-136.999-252.55-124.857-279.12 100.609 18.41 239.881 98.97 579.388 72.32 229.839-13.22 469.822-46.01 596.522-83.62Z" style="fill:#6897df;stroke:#000;stroke-width:9.08px" transform="matrix(.33022 0 0 .33022 11.396 -122.465)"/><path d="M1369.43 1086.63c44.14 51.88 66.04 230.28-36.43 296.02-34.9 13.29-347.361 77.09-598.4 83.78-97.595 7.57-322.554 20.74-576.402-72.1-28.17-2.33-139.766-156.43-46.737-301.87 169.713 68.95 363.274 109.89 614.364 101.66 445.145-18.47 643.605-107.49 643.605-107.49Z" style="fill:#6bb58b;stroke:#000;stroke-width:9.08px" transform="matrix(.33022 0 0 .33022 11.396 -122.465)"/><path d="M1281.79 820.807c60.19 13.834 132.39 176.111 87.27 265.823-120.13 55.25-408.023 99.03-643.235 107.05-122.741 4.74-348.093 4.61-613.005-100.91-63.553-73.12-2.313-281.715 61.293-301.004 45.982 65.393 274.22 106.01 551.712 110.936 240.516 8.674 490.715-35.437 555.965-81.895Z" style="fill:#e4c15c;stroke:#000;stroke-width:9.08px" transform="matrix(.33022 0 0 .33022 11.396 -122.465)"/><path d="M305.096 568.673s178.908 57.698 408.733 57.698c229.826 0 333.791-33.539 398.751-48.651 131.73 15.054 179.07 156.42 168.49 244.482-54.3 34.704-230.6 84.667-567.241 80.253-121.19-2.411-476.205-23.01-539.04-110.689-32.801-109.469 59.759-210.755 130.307-223.093Z" style="fill:#ed9456;stroke:#000;stroke-width:9.08px" transform="matrix(.33022 0 0 .33022 11.396 -122.465)"/><path d="M305.07 568.673s104.129-179.649 413.205-179.649c288.565 3.173 394.655 189.022 394.655 189.022s-189.698 53.459-395.812 48.971c-216.34 3.146-412.048-58.344-412.048-58.344Z" style="fill:#e7504b;stroke:#000;stroke-width:9.08px" transform="matrix(.33022 0 0 .33022 11.396 -122.465)"/><path d="M884.506 1071.65c87.432 0 156.854 92.41 162.344 206.07 5.95 123.28-69.796 214.43-162.344 206.27-87.094-7.68-158.416-92.38-158.416-206.17 0-113.79 70.984-206.17 158.416-206.17Z" style="fill:#ef880e;stroke:#000;stroke-width:7.75px" transform="matrix(.39832 0 0 .37522 -43.915 -180.089)"/><path d="M738.829 1043.38c56.463 15.41 92.736 81.41 92.736 179.56 0 98.16-33.381 158.96-92.341 177.04-62.687.31-132.857-70.93-132.784-175.47.068-98.15 57.676-181.27 132.389-181.13Z" style="fill:#9f5809;stroke:#000;stroke-width:6.72px" transform="matrix(.46061 0 0 .43134 -34.03 -228.034)"/></svg>