<svg xmlns="http://www.w3.org/2000/svg" xml:space="preserve"
    style="fill:currentColor;fill-rule:evenodd;clip-rule:evenodd;stroke-linejoin:round;stroke-miterlimit:2"
    viewBox="0 0 1200 285">
    <desc id="human-desc">A scan of the text "Written by a human" written out by hand, with a little heart next to it.</desc>
    <path d="M227.027 97.003c-6.839 5.246-6.149 6.76-14.589 8.135-13.909 2.267-13.155-12.989-16.673-9.367-13.468 13.868-29.821 10.99-31.908-4.324-2.174-15.941-.26-33.729-4.396-33.301-.539.055-5.13 3.533-8.628.014-2.449-2.463-1.816-7.667 4.625-8.849 3.448-.633 4.819-.356 4.179-3.833-4.682-25.471-8.674-24.329-9.572-30.929-.606-4.454 5.726-7.863 9.151-1.876 9.648 16.869 7.855 34.709 12.215 35.316.708.098 9.5 1.322 4.964 7.43-2.089 2.813-5.453 1.024-5.37 4.056.07 2.571.701 25.653 2.301 32.068 2.623 10.519 18.347-4.456 19.256-4.668 1.124-.262 3.983.882 3.883-1.376-.417-9.438-2.168-20.084-2.454-21.817-.304-1.852-18.104.336-14.141-8.976 1.761-4.139 11.912-2.369 12.307-5.228.395-2.865-1.746-18.338-1.965-19.925-.058-.419-7.274-7.202-.74-11.094 14.228-8.475 8.521 31.151 13.986 31.446 3.214.174 22.475-4.379 20.21 4.638-1.738 6.914-21.028 1.576-20.507 6.968 3.235 33.471 4.543 34.474 7.356 34.396 4.56-.126 16.571-9.816 16.111-14.42-3.475-34.796 24.148-29.606 23.594-14.993-.058 1.512-.402 10.591-8.987 16.632-.039.027-4.607 1.254-2.271 5.104 4.433 7.308 11.162 11.123 15.187 5.023 4.987-7.558 1.868-10.486 9.457-13.513 3.089-1.231-6.266-11.061.993-13.953 3.386-1.348 5.876 3.4 6.646.627 2.849-10.265 13.187-14.488 25.941 4.3 7.766 11.441 7.12 11.741 15.155 22.892 3.401 4.718-3.662 10.671-8.467 4.566-6.806-8.647-23.941-40.818-23.801-27.697.153 14.27 3.94 28.427-4.573 27.013-6.687-1.112-5.617-16.198-9.218-7.087-8.716 22.053-24.696 16.664-32.404 6.802-1.978-2.53-2.672-4.526-5.849-1.184-.078.081 0 0-1.004.984l11.028-30.936c-3.873 5.864-2.509 10.708.16 7.186 2.881-3.803 4.424-10.734-.16-7.186zM434.992 79.104c14.359 15.059 9.366-15.815 15.345-17.992 8.144-2.966 5.799 9.7 9.594 26.288 2.414 10.551 13.204 72.768 1.153 91.854-16.11 25.515-45.23-4.155-43.769-45.762.931-26.535 24.984-39 25.12-40.009.399-2.956-8.316 3.518-18.463-14.238-2.444-4.277-1.419-5.027-5.321-7.974-6.708-5.065 3.158-21.029 9.656-5.688 2.959 6.985 2.612 7.062 6.685 13.521l8.884 24.888c-5.04 4.511-24.803 16.753-14.082 53.423 7.409 25.344 21.514 27.778 25.894 10.128 4.156-16.751-1.11-68.298-4.169-68.383-.723-.02-.865-.024-7.643 4.832zM789.377 76.417c-2.18-35.633 30.594-37.909 33.68-12.853 1.188 9.644-2.123 17.001 5.522 23.85 4.2 3.763 7.201-2.219 10.914-1.744 5.334.682 1.57-2.778-1.088-13.146-2.446-9.541-6.81-25.479 2.214-23.52 6.622 1.439 2.88 19.44 6.491 14.291.058-.082-.528-13.506 11.401-14.645 7.693-.735 19.877 7.956 28.495 28.057 2.664 6.213 1.964 6.726 7.05 11.222 4.612 4.075-4.378 14.706-12.178.366-.82-1.507-10.248-26.857-21.305-30.072-11.227-3.264 2.536 46.011-12.115 40.376-2.291-.881-3.53-3.818-3.705-4.232-1.868-4.431-4.277 3.372-12.285 3.651-10.856.379-11.137-8.551-14.78-5.318-1.267 1.125-9.564 8.489-21.137-1.257-2.503-2.107-2.519-5.804-3.89-2.834-1.902 4.121-1.972 5.763-6.278 4.187-3.84-1.406-7.778-23.43-21.059-32.009-3.664-2.367-4.737.587-3.439 11.667.713 6.084 8.777 18.453-.389 18.33-6.246-.084-10.676-21.606-18.199-32.09-2.151-2.997-1.967 2.53-1.958 2.804.37 11.067.24 11.004 2.459 21.934 1.821 8.964-6.637 10.954-9.055 2.945-2.079-6.881-13.386-30.844-7.366-34.071 2.712-1.455 4.939.157 5.862-1.026.444-.569 2.22-5.538 8.207-5.287 6.035.252 10.312 10.737 11.993 9.409 1.566-1.236 6.083-10.852 19.749-.522 3.512 2.655 11.748 12.93 13.923 19.048.14.393-.491 2.238 2.266 2.489l21.658 9.676c1.196-2.308 1.398-2.162 1.983-4.685.282-1.215-.031-1.178-4.254-14.997-1.982-6.484.32-12.768-4.943-8.502-11.117 9.011-3.518 34.629 7.214 28.184zM1007.021 82.038c-1.48 1.183-16.23 12.975-23.288 4.287-1.271-1.563-.447-3.989-2.215-4.858-11.276-5.546-29.048-27.935-31.663-42.03-5.771-31.109 22.677-41.493 31.312-22.777 2.652 5.748 3.67 14.427 6.013 9.659 7.787-15.845 33.303-34.956 34.039 10.186.484 29.717-8.627 38.311-14.198 45.533L989 48.019c-14.721 9.965-10.554-45.587-27.067-28.102-1.589 1.681-9.052 14.294 3.917 32.332 14.21 19.764 17.003 16.969 20.313 19.636 4.431 3.569.687 8.618 6.374 7.876 22.447-2.926 23.287-64.86 13.912-61.386-11.055 4.097-15.06 25.578-17.449 29.644z" style="fill-opacity:.99" transform="translate(7.417 32.003)scale(1.15799)"/><path d="M686.185 82.553c-4.936-10.863-3.846-11.197-8.717-22.037-3.912-8.705 6.18-16.806 9.125-6.044.696 2.547 10.819 39.544 13.807 29.981 7.461-23.874-4.333-37.462 6.113-38.864 8.874-1.191 5.032 13.868 7.939 22.927 6.106 19.027 8.554 18.688 9.764 17.624 8.865-7.798 11.225 4.079 5.073 8.055-10.788 6.974-16.891-5.508-17.553-6.863-2.943-6.019-2.911 9.705-12.243 9.381-8.097-.281-8.352-10.831-12.134-5.314-7.208 10.515-18.362 13.682-22.06-4.856-1.026-5.143-5.148-38.968-18.847-41.781-6.636-1.363-6.719 9.729-6.727 10.743-.223 29.972 8.336 34.743.827 37.146-5.889 1.884-7.311-5.565-13.313-25.07-1.417-4.605-15.115-49.114-11.029-59.208 1.477-3.65 8.769-4.659 8.828 3.124.059 7.587.028 7.552 5.531 32.961.692 3.195 1.333-.18 3.101-2.841 7.673-11.547 29.304-9.885 37.484 25.968 4.345 19.046 3.437 24.889 6.961 20.552 2.648-3.259 2.297-4.08 6.401-4.505.158-.016.123-.08 1.669-1.079M40.42 62.749c-.529.301-1.022-.13-1.456 1.885-3.418 15.879-3.255 15.827-5.828 31.812-2.113 13.12-11.027 12.745-14.695 1.074C3.206 49.056 2.77 35.082 2.595 29.497c-.11-3.543-2.169-15.33 4.852-14.541 4.368.491 4.449 5.9 4.458 6.533.508 34.231 7.418 38.108 11.301 59.108 2.109 11.402 3.027-1.429 3.151-2.125 6.391-35.853 12.248-34.76 15.192-34.211 6.413 1.197 2.01 5.125 18.405 41.041 1.478 3.238 2.779 8.176 4.264 6.989.573-.458-1.845-14.744 9.419-52.749C75.206 34.248 85.71 4.104 92.428 2.257c3.035-.835 8.389 2.123 4.522 7.587-8.545 12.078-21.32 46.474-23.366 78.661-.157 2.463.523 20.722-9.065 19.815-5.531-.524-9.174-10.543-9.817-11.916-10.007-21.365-12.614-30.068-13.427-32.783zM415.025 95.043c-1.907 1.492-12.217 9.558-29.547 6.59-14.677-2.513-10.248-20.776-10.658-22.223-7.769-27.458-8.314-27.249-15.211-54.939-.02-.077-3.733-5.366-1.358-11.084 1.157-2.786 7.558-5.346 9.321 3.096 7.171 34.328 8.447 36.578 10.56 34.601 15.53-14.53 51.502 23.956 36.893 43.959L402.03 67.855c-1.297-1.466-5.462-7.547-13.541-10.319-9.791-3.36 1.902 25.735-2.551 32.265-2.876 4.218 10.176 2.824 15.557 1.676 13.199-2.818 7.507-12.698.535-23.622zM548.978 80.108c8.322 7.639 15.793-5.981 18.152 3.469 1.674 6.706-16.099 13.821-25.236 2.496-3.177-3.938-3.764 7.693-14.371 10.514-7.171 1.908-16.519-4.502-18.154-14.059-2.967-17.341 5.585-34.934 19.052-31.706 2.165.519 2.789 1.682 4.548-1.015 2.976-4.563 14.206-6.716 12.481 13.689-.742 8.775-1.219 9.143 3.528 16.612l-27.061-18.271c-9.55 16.435.353 36.075 9.672 18.708 6.912-12.879-2.495-24.986-9.672-18.708zM98.013 59.001c4.726-4.338 8.425-4.803 16.48-5.583 8.527-.826 15.006-.923 16.016 3.08 2.247 8.903-13.607 4.424-23.154 7.57-10.426 3.435 1.942 29.298.851 35.384-.2 1.118-5.903 12.697-12.92-5.873-5.651-14.955-9.169-23.557-8.775-28.078.786-9.032 7.949-2.796 11.502-6.5" style="fill-opacity:.99" transform="translate(7.417 32.003)scale(1.15799)"/><path d="M142.988 98.172c-2.896-5.868-4.32-9.413-5.121-26.694-.11-2.374-5.263-7.667.844-10.487 9.869-4.559 8.565 16.075 9.547 22.547 1.105 7.279 1.552 8.57 5.173 7.674 4.15-1.027 7.987 4.046 3.93 8.149-7.19 7.273-13.626-.309-14.373-1.189" style="fill-opacity:.98" transform="translate(7.417 32.003)scale(1.15799)"/><path d="M138.004 38.829c-3.476-6.655-1.556-11.469 1.538-12.157 9.352-2.077 8.444 21.899-1.538 12.157" style="fill-opacity:.99" transform="translate(7.417 32.003)scale(1.15799)"/>
</svg>
 
